<svg width="45" height="23" viewBox="0 0 45 23" fill="none" xmlns="http://www.w3.org/2000/svg">
<path d="M4.89989 11.2882C4.89989 9.11225 5.21989 7.25625 6.01989 6.00825C6.65989 4.98425 7.65189 4.31225 9.15589 4.31225C10.6919 4.31225 11.6199 4.98425 12.2599 6.00825C13.0919 7.25625 13.4119 9.11225 13.4119 11.2882C13.4119 13.4642 13.0919 15.3202 12.2599 16.5682C11.6199 17.5922 10.6919 18.2642 9.15589 18.2642C7.65189 18.2642 6.65989 17.5922 6.01989 16.5682C5.21989 15.3202 4.89989 13.4642 4.89989 11.2882ZM0.483887 11.2882C0.483887 13.9443 0.899887 16.5362 2.30789 18.6803C3.68389 20.7283 5.92389 22.1683 9.15589 22.1683C12.3879 22.1683 14.6279 20.7283 15.9719 18.6803C17.3799 16.5362 17.8279 13.9443 17.8279 11.2882C17.8279 8.63225 17.3799 6.04025 15.9719 3.89625C14.6279 1.84825 12.3879 0.408249 9.15589 0.408249C5.92389 0.408249 3.68389 1.84825 2.30789 3.89625C0.899887 6.04025 0.483887 8.63225 0.483887 11.2882Z" fill="#3F3E43"/>
<path d="M23.1236 5.78425C23.1236 4.47225 24.0516 3.57625 25.2356 3.57625C26.4516 3.57625 27.3476 4.47225 27.3476 5.78425C27.3476 7.09625 26.4516 8.02425 25.2356 8.02425C24.0516 8.02425 23.1236 7.12825 23.1236 5.78425ZM19.9236 5.78425C19.9236 8.69625 22.3236 11.0002 25.2356 11.0002C28.1156 11.0002 30.5796 8.76025 30.5796 5.78425C30.5796 2.84025 28.1156 0.536249 25.2356 0.536249C22.3556 0.536249 19.9236 2.84025 19.9236 5.78425ZM37.1076 16.7922C37.1076 15.4802 38.0356 14.5842 39.2196 14.5842C40.4356 14.5842 41.3316 15.4802 41.3316 16.7922C41.3316 18.1042 40.4356 19.0322 39.2196 19.0322C38.0356 19.0322 37.1076 18.1362 37.1076 16.7922ZM33.9076 16.7922C33.9076 19.7043 36.3076 22.0083 39.2196 22.0083C42.0996 22.0083 44.5636 19.7682 44.5636 16.7922C44.5636 13.8482 42.0996 11.5443 39.2196 11.5443C36.3396 11.5443 33.9076 13.8482 33.9076 16.7922ZM26.7716 21.6562L41.4276 0.888248H37.7156L23.0596 21.6562H26.7716Z" fill="#3F3E43"/>
</svg>
