<svg width="65" height="16" viewBox="0 0 65 16" fill="none" xmlns="http://www.w3.org/2000/svg">
<path d="M9.30385 12.6563H10.9998L6.48785 1.31227H4.67985L0.167847 12.6563H1.84785L3.04785 9.48827H8.07185L9.30385 12.6563ZM5.54385 2.94427L7.51185 8.03227H3.60785L5.54385 2.94427Z" fill="#3F3E43"/>
<path d="M11.7241 10.6563C11.8521 11.5363 12.7481 12.8963 14.8601 12.8963C16.7641 12.8963 17.6761 11.6003 17.6761 10.5123C17.6761 9.37627 16.9401 8.52827 15.5481 8.22427L14.3001 7.95227C13.7081 7.82427 13.4201 7.48827 13.4201 7.02427C13.4201 6.49627 13.9321 6.00027 14.7001 6.00027C15.9161 6.00027 16.2361 6.88027 16.3001 7.28027L17.6281 6.78427C17.4681 6.09627 16.8121 4.72027 14.7001 4.72027C13.1961 4.72027 11.9641 5.84027 11.9641 7.15227C11.9641 8.24027 12.6841 9.05627 13.8841 9.31227L15.1961 9.60027C15.8361 9.74427 16.1881 10.1123 16.1881 10.5923C16.1881 11.1363 15.7241 11.6163 14.8761 11.6163C13.7881 11.6163 13.1801 10.9763 13.0841 10.1763L11.7241 10.6563Z" fill="#3F3E43"/>
<path d="M18.9585 10.6563C19.0865 11.5363 19.9825 12.8963 22.0945 12.8963C23.9985 12.8963 24.9105 11.6003 24.9105 10.5123C24.9105 9.37627 24.1745 8.52827 22.7825 8.22427L21.5345 7.95227C20.9425 7.82427 20.6545 7.48827 20.6545 7.02427C20.6545 6.49627 21.1665 6.00027 21.9345 6.00027C23.1505 6.00027 23.4705 6.88027 23.5345 7.28027L24.8625 6.78427C24.7025 6.09627 24.0465 4.72027 21.9345 4.72027C20.4305 4.72027 19.1985 5.84027 19.1985 7.15227C19.1985 8.24027 19.9185 9.05627 21.1185 9.31227L22.4305 9.60027C23.0705 9.74427 23.4225 10.1123 23.4225 10.5923C23.4225 11.1363 22.9585 11.6163 22.1105 11.6163C21.0225 11.6163 20.4145 10.9763 20.3185 10.1763L18.9585 10.6563Z" fill="#3F3E43"/>
<path d="M28.4008 12.6563V4.96027H26.9128V12.6563H28.4008ZM26.5768 2.04827C26.5768 2.64027 27.0568 3.12027 27.6488 3.12027C28.2568 3.12027 28.7368 2.64027 28.7368 2.04827C28.7368 1.44027 28.2568 0.960266 27.6488 0.960266C27.0568 0.960266 26.5768 1.44027 26.5768 2.04827Z" fill="#3F3E43"/>
<path d="M30.3997 13.0723C30.5917 14.7203 32.0317 15.9363 33.9517 15.9363C36.8477 15.9363 37.8077 14.0323 37.8077 12.0803V4.96027H36.3197V6.03227C35.9357 5.26427 35.1357 4.81627 33.9517 4.81627C31.8397 4.81627 30.4157 6.48027 30.4157 8.56027C30.4157 10.7363 31.9037 12.2883 33.9517 12.2883C35.1037 12.2883 35.9357 11.7283 36.3037 11.0243V12.1283C36.3037 13.7923 35.5677 14.6243 33.9517 14.6243C32.7837 14.6243 31.9677 13.8083 31.8557 12.7363L30.3997 13.0723ZM34.1757 11.0243C32.8157 11.0243 31.9517 10.0643 31.9517 8.56027C31.9517 7.07227 32.8477 6.09627 34.1757 6.09627C35.4717 6.09627 36.3677 7.07227 36.3677 8.56027C36.3677 10.0483 35.4717 11.0243 34.1757 11.0243Z" fill="#3F3E43"/>
<path d="M41.7137 8.20827C41.7137 7.04027 42.3217 6.09627 43.5057 6.09627C44.8497 6.09627 45.2977 6.96027 45.2977 8.03227V12.6563H46.8017V7.77627C46.8017 6.06427 45.8897 4.73627 44.0497 4.73627C43.1537 4.73627 42.2417 5.10427 41.6817 6.06427V4.96027H40.2097V12.6563H41.7137V8.20827Z" fill="#3F3E43"/>
<path d="M50.1701 8.01627C50.2341 7.02427 51.0021 6.04827 52.2661 6.04827C53.6261 6.04827 54.3461 6.91227 54.3781 8.01627H50.1701ZM54.6021 10.0163C54.3141 10.8803 53.6901 11.5683 52.4421 11.5683C51.1461 11.5683 50.1541 10.6083 50.1221 9.23227H55.9141C55.9301 9.13627 55.9461 8.94427 55.9461 8.75227C55.9461 6.35227 54.6181 4.72027 52.2501 4.72027C50.3141 4.72027 48.5701 6.36827 48.5701 8.78427C48.5701 11.3923 50.3781 12.8963 52.4421 12.8963C54.2341 12.8963 55.4661 11.8243 55.8981 10.4643L54.6021 10.0163Z" fill="#3F3E43"/>
<path d="M58.762 8.78427C58.762 7.20027 59.658 6.08027 61.034 6.08027C62.41 6.08027 63.242 7.16827 63.242 8.75227C63.242 10.3363 62.394 11.5363 61.018 11.5363C59.578 11.5363 58.762 10.3683 58.762 8.78427ZM63.258 11.6163C63.258 12.0803 63.306 12.4803 63.338 12.6563H64.794C64.778 12.5283 64.714 11.9683 64.714 11.2323V1.07227H63.226V6.04827C62.97 5.42427 62.234 4.75227 60.874 4.75227C58.698 4.75227 57.226 6.60827 57.226 8.78427C57.226 11.0723 58.618 12.8643 60.874 12.8643C62.074 12.8643 62.89 12.2243 63.258 11.4883V11.6163Z" fill="#3F3E43"/>
</svg>
