<svg width="136" height="136" viewBox="0 0 136 136" fill="none" xmlns="http://www.w3.org/2000/svg">
<path d="M136 68C136 105.555 105.555 136 68 136C30.4446 136 0 105.555 0 68C0 30.4446 30.4446 0 68 0C105.555 0 136 30.4446 136 68ZM10.2 68C10.2 99.9221 36.0779 125.8 68 125.8C99.9221 125.8 125.8 99.9221 125.8 68C125.8 36.0779 99.9221 10.2 68 10.2C36.0779 10.2 10.2 36.0779 10.2 68Z" fill="#171821"/>
<path d="M68 0C83.3683 1.83266e-07 98.2835 5.20592 110.314 14.7691C122.344 24.3322 130.781 37.6886 134.247 52.6608C137.714 67.6331 136.007 83.3381 129.404 97.2157C122.801 111.093 111.692 122.325 97.8876 129.08L93.4045 119.918C105.138 114.176 114.581 104.629 120.193 92.8333C125.806 81.0374 127.257 67.6881 124.31 54.9617C121.364 42.2353 114.193 30.8824 103.967 22.7537C93.741 14.625 81.0631 10.2 68 10.2V0Z" fill="#171821"/>
<path d="M49.8998 57.6324C49.8998 55.4564 50.2198 53.6004 51.0198 52.3524C51.6598 51.3284 52.6518 50.6564 54.1558 50.6564C55.6918 50.6564 56.6198 51.3284 57.2598 52.3524C58.0918 53.6004 58.4118 55.4564 58.4118 57.6324C58.4118 59.8084 58.0918 61.6644 57.2598 62.9124C56.6198 63.9364 55.6918 64.6084 54.1558 64.6084C52.6518 64.6084 51.6598 63.9364 51.0198 62.9124C50.2198 61.6644 49.8998 59.8084 49.8998 57.6324ZM45.4838 57.6324C45.4838 60.2884 45.8998 62.8804 47.3078 65.0244C48.6838 67.0724 50.9238 68.5124 54.1558 68.5124C57.3878 68.5124 59.6278 67.0724 60.9718 65.0244C62.3798 62.8804 62.8278 60.2884 62.8278 57.6324C62.8278 54.9764 62.3798 52.3844 60.9718 50.2404C59.6278 48.1924 57.3878 46.7524 54.1558 46.7524C50.9238 46.7524 48.6838 48.1924 47.3078 50.2404C45.8998 52.3844 45.4838 54.9764 45.4838 57.6324Z" fill="white"/>
<path d="M68.1235 52.1284C68.1235 50.8164 69.0515 49.9204 70.2355 49.9204C71.4515 49.9204 72.3475 50.8164 72.3475 52.1284C72.3475 53.4404 71.4515 54.3684 70.2355 54.3684C69.0515 54.3684 68.1235 53.4724 68.1235 52.1284ZM64.9235 52.1284C64.9235 55.0404 67.3235 57.3444 70.2355 57.3444C73.1155 57.3444 75.5795 55.1044 75.5795 52.1284C75.5795 49.1844 73.1155 46.8804 70.2355 46.8804C67.3555 46.8804 64.9235 49.1844 64.9235 52.1284ZM82.1075 63.1364C82.1075 61.8244 83.0355 60.9284 84.2195 60.9284C85.4355 60.9284 86.3315 61.8244 86.3315 63.1364C86.3315 64.4484 85.4355 65.3764 84.2195 65.3764C83.0355 65.3764 82.1075 64.4804 82.1075 63.1364ZM78.9075 63.1364C78.9075 66.0484 81.3075 68.3524 84.2195 68.3524C87.0995 68.3524 89.5635 66.1124 89.5635 63.1364C89.5635 60.1924 87.0995 57.8884 84.2195 57.8884C81.3395 57.8884 78.9075 60.1924 78.9075 63.1364ZM71.7715 68.0004L86.4275 47.2324H82.7155L68.0595 68.0004H71.7715Z" fill="white"/>
<path d="M44.1954 92.4008V87.6328H49.0274V86.1608H44.1954V82.5128H49.5234V81.0568H42.6274V92.4008H44.1954Z" fill="#3F3E43"/>
<path d="M55.6332 91.4728C55.6332 91.7928 55.6652 92.2248 55.6972 92.4008H57.1372C57.1052 92.1288 57.0572 91.5848 57.0572 90.9768V84.7048H55.5532V89.3448C55.5532 90.5128 54.9452 91.3128 53.7292 91.3128C52.4652 91.3128 51.9852 90.3848 51.9852 89.3288V84.7048H50.4812V89.5528C50.4812 91.2968 51.5692 92.6408 53.3612 92.6408C54.2572 92.6408 55.2172 92.2728 55.6332 91.4728Z" fill="#3F3E43"/>
<path d="M61.1277 87.9528C61.1277 86.7848 61.7357 85.8408 62.9197 85.8408C64.2637 85.8408 64.7117 86.7048 64.7117 87.7768V92.4008H66.2157V87.5208C66.2157 85.8088 65.3037 84.4808 63.4637 84.4808C62.5677 84.4808 61.6557 84.8488 61.0957 85.8088V84.7048H59.6237V92.4008H61.1277V87.9528Z" fill="#3F3E43"/>
<path d="M69.5041 88.5288C69.5041 86.9448 70.4001 85.8248 71.7761 85.8248C73.1521 85.8248 73.9841 86.9128 73.9841 88.4968C73.9841 90.0808 73.1361 91.2808 71.7601 91.2808C70.3201 91.2808 69.5041 90.1128 69.5041 88.5288ZM74.0001 91.3608C74.0001 91.8248 74.0481 92.2248 74.0801 92.4008H75.5361C75.5201 92.2728 75.4561 91.7128 75.4561 90.9768V80.8168H73.9681V85.7928C73.7121 85.1688 72.9761 84.4968 71.6161 84.4968C69.4401 84.4968 67.9681 86.3528 67.9681 88.5288C67.9681 90.8168 69.3601 92.6088 71.6161 92.6088C72.8161 92.6088 73.6321 91.9688 74.0001 91.2328V91.3608Z" fill="#3F3E43"/>
<path d="M78.9903 87.7608C79.0543 86.7688 79.8223 85.7928 81.0863 85.7928C82.4463 85.7928 83.1663 86.6568 83.1983 87.7608H78.9903ZM83.4223 89.7608C83.1343 90.6248 82.5103 91.3128 81.2623 91.3128C79.9663 91.3128 78.9743 90.3528 78.9423 88.9768H84.7343C84.7503 88.8808 84.7663 88.6888 84.7663 88.4968C84.7663 86.0968 83.4383 84.4648 81.0703 84.4648C79.1343 84.4648 77.3903 86.1128 77.3903 88.5288C77.3903 91.1368 79.1983 92.6408 81.2623 92.6408C83.0543 92.6408 84.2863 91.5688 84.7183 90.2088L83.4223 89.7608Z" fill="#3F3E43"/>
<path d="M87.5822 88.5288C87.5822 86.9448 88.4782 85.8248 89.8542 85.8248C91.2302 85.8248 92.0622 86.9128 92.0622 88.4968C92.0622 90.0808 91.2142 91.2808 89.8382 91.2808C88.3982 91.2808 87.5822 90.1128 87.5822 88.5288ZM92.0782 91.3608C92.0782 91.8248 92.1262 92.2248 92.1582 92.4008H93.6142C93.5982 92.2728 93.5342 91.7128 93.5342 90.9768V80.8168H92.0462V85.7928C91.7902 85.1688 91.0542 84.4968 89.6942 84.4968C87.5182 84.4968 86.0462 86.3528 86.0462 88.5288C86.0462 90.8168 87.4382 92.6088 89.6942 92.6088C90.8942 92.6088 91.7102 91.9688 92.0782 91.2328V91.3608Z" fill="#3F3E43"/>
</svg>
