<svg width="19" height="19" viewBox="0 0 19 19" fill="none" xmlns="http://www.w3.org/2000/svg">
<circle cx="9.10252" cy="9.10252" r="9.10252" fill="#0276C6"/>
<path fill-rule="evenodd" clip-rule="evenodd" d="M10.5674 18.0877C14.8981 17.3871 18.205 13.631 18.205 9.10246C18.205 4.57394 14.8981 0.817798 10.5674 0.117188C6.23663 0.817798 2.92969 4.57394 2.92969 9.10246C2.92969 13.631 6.23663 17.3871 10.5674 18.0877Z" fill="#0397FE"/>
<path d="M4.1312 10.0007L5.5116 4.84897L6.98629 5.24411L6.68125 6.57657L6.33287 6.28565C6.48095 6.17282 6.65491 6.06692 6.85473 5.96795C7.05629 5.86252 7.27939 5.78018 7.52403 5.72095C7.7704 5.65525 8.03894 5.62322 8.32966 5.62486C8.62858 5.62177 8.94944 5.66615 9.29224 5.75801C9.60917 5.84293 9.89046 5.97029 10.1361 6.1401C10.39 6.30517 10.5845 6.52366 10.7196 6.79556C10.8629 7.06273 10.9248 7.38782 10.9054 7.77082L10.4844 7.59562L10.6133 7.46379C10.7726 7.36089 10.9563 7.25759 11.1643 7.15389C11.3788 7.05192 11.6124 6.96895 11.8653 6.90498C12.1199 6.83455 12.3934 6.79692 12.6858 6.79209C12.9783 6.78727 13.283 6.82732 13.5999 6.91224C14.1755 7.06648 14.6038 7.29215 14.8847 7.58924C15.1673 7.87987 15.3379 8.21328 15.3965 8.58947C15.4552 8.96567 15.4325 9.3478 15.3285 9.73588L14.5122 12.7823L12.9502 12.3637L13.7067 9.54048C13.7622 9.33351 13.7736 9.13554 13.7411 8.94658C13.715 8.75935 13.6309 8.59469 13.4887 8.45261C13.3547 8.3058 13.1584 8.19773 12.8997 8.12841C12.6474 8.06082 12.4042 8.03724 12.1699 8.05766C11.9422 8.07982 11.7292 8.13714 11.5311 8.22964C11.3412 8.31741 11.1776 8.43648 11.0403 8.58685C10.9094 8.73895 10.8171 8.91526 10.7634 9.11576L10.0979 11.5995L8.53587 11.1809L9.29496 8.34796C9.35215 8.13451 9.35714 7.93481 9.30991 7.74885C9.26442 7.55642 9.15442 7.38483 8.97991 7.23409C8.81187 7.08508 8.56938 6.96811 8.25245 6.88319C8.02608 6.82253 7.80784 6.80912 7.59774 6.84294C7.3941 6.8785 7.20618 6.94599 7.03396 7.04542C6.86993 7.14012 6.73329 7.24908 6.62401 7.37232C6.51474 7.49555 6.4445 7.61537 6.41331 7.7318L5.69321 10.4192L4.1312 10.0007Z" fill="white"/>
</svg>
